# xmcd
#
# Track frame offsets: 
#        182
#        13405
#        25427
#        37215
#        52377
#        65585
#        82670
#        97140
#        112780
#        127090
#        143395
#        159662
#
# Disc length: 2254 seconds
#
# Revision: 3
# Processed by: cddbd v1.5.1PL0 Copyright (c) Steve Scherf et al.
# Submitted via: ExactAudioCopy v0.95a5
#
DISCID=a908cc0c
DTITLE=Marty Stuart - The Marty Party Hit Pack
DYEAR=1995
DGENRE=Country
TTITLE0=If I Ain't Got You
TTITLE1=The Whiskey Ain't Workin' - Travis Tritt and Marty Stuart
TTITLE2=Hillbilly Rock
TTITLE3=Now That's Country
TTITLE4=Burn Me Down
TTITLE5=The Likes Of Me
TTITLE6=Tempted
TTITLE7=This One's Gonna Hurt You (For A Long Long Time) - Travis Trit
TTITLE7=t and Marty Stuart
TTITLE8=Little Things
TTITLE9=The Weight - The Staple Singers and Marty Stuart
TTITLE10=Western Girls
TTITLE11=Don't Be Cruel (To A Heart That's True)
EXTD=
EXTT0=
EXTT1=Travis Tritt And Marty Stuart
EXTT2=
EXTT3=
EXTT4=
EXTT5=
EXTT6=
EXTT7=Travis Tritt And Marty Stuart
EXTT8=
EXTT9=The Staple Singers and Marty Stuart
EXTT10=
EXTT11=
PLAYORDER=
